<svg width="43" height="52" viewBox="0 0 43 52" fill="none" xmlns="http://www.w3.org/2000/svg">
<mask id="mask0_1112_12" style="mask-type:alpha" maskUnits="userSpaceOnUse" x="0" y="0" width="43" height="52">
<rect x="0.0157471" y="0.15625" width="42.9686" height="51.5654" fill="#D9D9D9"/>
</mask>
<g mask="url(#mask0_1112_12)">
<path d="M20.6406 3.59375H6.89062C6.6627 3.59375 6.44412 3.68429 6.28296 3.84546C6.12179 4.00662 6.03125 4.2252 6.03125 4.45312V11.3281C6.03125 11.556 6.12179 11.7746 6.28296 11.9358C6.44412 12.097 6.6627 12.1875 6.89062 12.1875H20.6406C20.8685 12.1875 21.0871 12.097 21.2483 11.9358C21.4095 11.7746 21.5 11.556 21.5 11.3281V4.45312C21.5 4.2252 21.4095 4.00662 21.2483 3.84546C21.0871 3.68429 20.8685 3.59375 20.6406 3.59375ZM19.7812 10.4688H7.75V5.3125H19.7812V10.4688Z" fill="#0E59F2"/>
<path d="M14.625 25.9375H6.03125C5.80333 25.9375 5.58474 26.028 5.42358 26.1892C5.26242 26.3504 5.17188 26.569 5.17188 26.7969C5.17188 27.0248 5.26242 27.2434 5.42358 27.4045C5.58474 27.5657 5.80333 27.6562 6.03125 27.6562H14.625C14.8529 27.6562 15.0715 27.5657 15.2327 27.4045C15.3938 27.2434 15.4844 27.0248 15.4844 26.7969C15.4844 26.569 15.3938 26.3504 15.2327 26.1892C15.0715 26.028 14.8529 25.9375 14.625 25.9375V25.9375Z" fill="#0E59F2"/>
<path d="M13.7656 29.375H5.17188C4.94395 29.375 4.72537 29.4655 4.56421 29.6267C4.40304 29.7879 4.3125 30.0065 4.3125 30.2344C4.3125 30.4623 4.40304 30.6809 4.56421 30.842C4.72537 31.0032 4.94395 31.0938 5.17188 31.0938H13.7656C13.9935 31.0938 14.2121 31.0032 14.3733 30.842C14.5345 30.6809 14.625 30.4623 14.625 30.2344C14.625 30.0065 14.5345 29.7879 14.3733 29.6267C14.2121 29.4655 13.9935 29.375 13.7656 29.375Z" fill="#0E59F2"/>
<path d="M21.5 27.6562C21.7279 27.6562 21.9465 27.5657 22.1077 27.4045C22.2688 27.2434 22.3594 27.0248 22.3594 26.7969C22.3594 26.569 22.2688 26.3504 22.1077 26.1892C21.9465 26.028 21.7279 25.9375 21.5 25.9375H18.0625C17.8346 25.9375 17.616 26.028 17.4548 26.1892C17.2937 26.3504 17.2031 26.569 17.2031 26.7969C17.2031 27.0248 17.2937 27.2434 17.4548 27.4045C17.616 27.5657 17.8346 27.6562 18.0625 27.6562H21.5Z" fill="#0E59F2"/>
<path d="M22.3594 29.375H18.9219C18.694 29.375 18.4754 29.4655 18.3142 29.6267C18.153 29.7879 18.0625 30.0065 18.0625 30.2344C18.0625 30.4623 18.153 30.6809 18.3142 30.842C18.4754 31.0032 18.694 31.0938 18.9219 31.0938H22.3594C22.5873 31.0938 22.8059 31.0032 22.967 30.842C23.1282 30.6809 23.2188 30.4623 23.2188 30.2344C23.2188 30.0065 23.1282 29.7879 22.967 29.6267C22.8059 29.4655 22.5873 29.375 22.3594 29.375Z" fill="#0E59F2"/>
<path d="M42.8936 8.36564C42.7813 8.14113 41.6854 6.17188 37.8281 6.17188C33.9708 6.17188 32.8749 8.14113 32.7626 8.36564C32.7029 8.48497 32.6718 8.61657 32.6718 8.75V13.8459C32.6714 14.2704 32.776 14.6884 32.9763 15.0627C33.1767 15.4369 33.4665 15.7558 33.8199 15.9909L35.2499 16.9442V21.6406C35.2506 22.1736 35.4162 22.6932 35.7239 23.1283C36.0316 23.5635 36.4664 23.8927 36.9687 24.0709V27.6563C36.9682 28.1119 36.7869 28.5488 36.4647 28.871C36.1425 29.1932 35.7056 29.3745 35.2499 29.375H32.6718C32.2161 29.3745 31.7793 29.1932 31.4571 28.871C31.1349 28.5488 30.9536 28.1119 30.9531 27.6563V26.7969C30.952 25.8855 30.5896 25.0118 29.9451 24.3673C29.3007 23.7229 28.4269 23.3604 27.5156 23.3594H25.3251L24.9181 21.4602C24.8769 21.2679 24.7711 21.0957 24.6182 20.9721C24.4653 20.8485 24.2747 20.7812 24.0781 20.7813H19.3633L18.9101 18.0619C18.8767 17.8612 18.7731 17.6789 18.6179 17.5474C18.4627 17.4159 18.2659 17.3438 18.0624 17.3438H17.2031V15.625H24.0781C24.306 15.625 24.5246 15.5345 24.6857 15.3733C24.8469 15.2121 24.9374 14.9935 24.9374 14.7656V1.01563C24.9374 0.787705 24.8469 0.569119 24.6857 0.407955C24.5246 0.246791 24.306 0.15625 24.0781 0.15625H3.45307C3.22515 0.15625 3.00657 0.246791 2.8454 0.407955C2.68424 0.569119 2.5937 0.787705 2.5937 1.01563V14.7656C2.5937 14.9935 2.68424 15.2121 2.8454 15.3733C3.00657 15.5345 3.22515 15.625 3.45307 15.625H10.3281V17.3438H9.4687C9.26527 17.3438 9.06844 17.4159 8.91322 17.5474C8.75801 17.6789 8.65447 17.8612 8.62103 18.0619L8.16782 20.7813H3.45307C3.2565 20.7812 3.06584 20.8485 2.91296 20.9721C2.76007 21.0957 2.6542 21.2679 2.61303 21.4602L0.0349099 33.4914C0.00799637 33.6167 0.00944901 33.7464 0.0391614 33.8711C0.0688738 33.9958 0.126094 34.1122 0.206631 34.2119C0.287168 34.3116 0.388983 34.392 0.50462 34.4473C0.620258 34.5025 0.746789 34.5312 0.874949 34.5313H3.45307V41.4063C2.76955 41.407 2.11424 41.6789 1.63091 42.1622C1.14759 42.6455 0.875717 43.3009 0.874949 43.9844V45.7031C0.875055 45.8687 0.922971 46.0307 1.01294 46.1696C1.1029 46.3086 1.23109 46.4186 1.38209 46.4864C1.06455 47.0042 0.889866 47.5969 0.875827 48.2041C0.861787 48.8113 1.00889 49.4114 1.30216 49.9433C1.59543 50.4752 2.0244 50.9199 2.54539 51.2321C3.06639 51.5444 3.66081 51.713 4.26815 51.7208C4.87548 51.7286 5.47405 51.5754 6.00291 51.2767C6.53177 50.978 6.97205 50.5445 7.27892 50.0203C7.58579 49.4961 7.7483 48.9 7.7499 48.2926C7.7515 47.6852 7.59214 47.0883 7.28803 46.5625H20.2442C19.94 47.0883 19.7805 47.6853 19.7821 48.2927C19.7836 48.9001 19.9461 49.4963 20.2529 50.0205C20.5598 50.5447 21.0001 50.9783 21.5289 51.277C22.0578 51.5758 22.6564 51.7291 23.2638 51.7212C23.8712 51.7134 24.4657 51.5448 24.9867 51.2325C25.5077 50.9203 25.9367 50.4755 26.2299 49.9435C26.5232 49.4116 26.6702 48.8114 26.6561 48.2042C26.642 47.5969 26.4672 47.0042 26.1496 46.4864C26.3005 46.4185 26.4286 46.3085 26.5184 46.1695C26.6083 46.0306 26.6561 45.8686 26.6562 45.7031V43.9844C26.6554 43.3009 26.3836 42.6455 25.9002 42.1622C25.4169 41.6789 24.7616 41.407 24.0781 41.4063V34.5313H26.6562C26.7844 34.5312 26.9109 34.5025 27.0265 34.4473C27.1422 34.392 27.244 34.3116 27.3245 34.2119C27.4051 34.1122 27.4623 33.9958 27.492 33.8711C27.5217 33.7464 27.5232 33.6167 27.4962 33.4914L25.6934 25.0781H27.5156C27.9712 25.0787 28.4081 25.2599 28.7303 25.5821C29.0525 25.9043 29.2338 26.3412 29.2343 26.7969V27.6563C29.2353 28.5676 29.5978 29.4414 30.2423 30.0858C30.8867 30.7302 31.7605 31.0927 32.6718 31.0938H35.2499C36.1613 31.0927 37.0351 30.7302 37.6795 30.0858C38.3239 29.4414 38.6864 28.5676 38.6874 27.6563V24.0709C39.1897 23.8927 39.6245 23.5635 39.9322 23.1283C40.24 22.6932 40.4055 22.1736 40.4062 21.6406V16.9442L41.8363 15.9909C42.1897 15.7558 42.4795 15.4369 42.6798 15.0626C42.8801 14.6884 42.9848 14.2704 42.9843 13.8459V8.75C42.9843 8.61657 42.9533 8.48497 42.8936 8.36564V8.36564ZM4.31245 1.875H23.2187V13.9063H4.31245V1.875ZM12.0468 15.625H15.4843V17.3438H12.0468V15.625ZM10.1967 19.0625H17.3345L17.9073 22.5H9.62382L10.1967 19.0625ZM6.0312 48.2813C6.0312 48.6212 5.9304 48.9535 5.74154 49.2361C5.55268 49.5188 5.28425 49.7391 4.97019 49.8692C4.65613 49.9993 4.31054 50.0333 3.97714 49.967C3.64373 49.9007 3.33748 49.737 3.09711 49.4966C2.85674 49.2562 2.69304 48.95 2.62672 48.6166C2.56041 48.2832 2.59444 47.9376 2.72453 47.6235C2.85462 47.3095 3.07492 47.041 3.35756 46.8522C3.64021 46.6633 3.97251 46.5625 4.31245 46.5625C4.76812 46.563 5.20498 46.7443 5.52719 47.0665C5.8494 47.3887 6.03066 47.8256 6.0312 48.2813V48.2813ZM23.2187 50C22.8788 50 22.5465 49.8992 22.2638 49.7103C21.9812 49.5215 21.7609 49.253 21.6308 48.939C21.5007 48.6249 21.4667 48.2793 21.533 47.9459C21.5993 47.6125 21.763 47.3063 22.0034 47.0659C22.2437 46.8255 22.55 46.6618 22.8834 46.5955C23.2168 46.5292 23.5624 46.5632 23.8764 46.6933C24.1905 46.8234 24.4589 47.0437 24.6478 47.3264C24.8366 47.609 24.9374 47.9413 24.9374 48.2813C24.9369 48.7369 24.7557 49.1738 24.4334 49.496C24.1112 49.8182 23.6744 49.9995 23.2187 50V50ZM24.9374 43.9844V44.8438H2.5937V43.9844C2.59395 43.7565 2.68458 43.5381 2.84569 43.377C3.0068 43.2159 3.22523 43.1253 3.45307 43.125H24.0781C24.3059 43.1253 24.5244 43.2159 24.6855 43.377C24.8466 43.5381 24.9372 43.7565 24.9374 43.9844ZM10.3281 41.4063H8.60932V37.9688H10.3281V41.4063ZM18.9218 41.4063H17.2031V37.9688H18.9218V41.4063ZM22.3593 41.4063H20.6406V37.1094C20.6406 36.8815 20.55 36.6629 20.3889 36.5017C20.2277 36.3405 20.0091 36.25 19.7812 36.25H16.3437C16.1158 36.25 15.8972 36.3405 15.736 36.5017C15.5749 36.6629 15.4843 36.8815 15.4843 37.1094V41.4063H12.0468V37.1094C12.0468 36.8815 11.9563 36.6629 11.7951 36.5017C11.634 36.3405 11.4154 36.25 11.1874 36.25H7.74995C7.52203 36.25 7.30344 36.3405 7.14228 36.5017C6.98112 36.6629 6.89057 36.8815 6.89057 37.1094V41.4063H5.17182V34.5313H22.3593V41.4063ZM1.93843 32.8125L4.14809 22.5H7.88133L7.76166 23.2181C7.74114 23.3412 7.74769 23.4673 7.78084 23.5876C7.81399 23.708 7.87295 23.8196 7.95362 23.9149C8.0343 24.0101 8.13474 24.0866 8.24798 24.1391C8.36121 24.1916 8.48452 24.2187 8.60932 24.2188H18.9218C19.0466 24.2187 19.1699 24.1916 19.2832 24.1391C19.3964 24.0866 19.4969 24.0101 19.5775 23.9149C19.6582 23.8196 19.7172 23.708 19.7503 23.5876C19.7835 23.4673 19.79 23.3412 19.7695 23.2181L19.6498 22.5H23.3831L25.5927 32.8125H1.93843ZM37.8281 7.89063C40.0839 7.89063 40.988 8.68641 41.2656 9.01598V10.5246C40.2192 9.9249 39.0341 9.60938 37.8281 9.60938C36.622 9.60938 35.437 9.9249 34.3906 10.5246V9.01598C34.6682 8.68641 35.5722 7.89063 37.8281 7.89063ZM40.8829 14.5609L39.0701 15.7694C38.9524 15.8479 38.8559 15.9542 38.7891 16.0789C38.7224 16.2036 38.6875 16.3429 38.6874 16.4844V21.6406C38.6874 21.8685 38.5969 22.0871 38.4357 22.2483C38.2746 22.4095 38.056 22.5 37.8281 22.5C37.6002 22.5 37.3816 22.4095 37.2204 22.2483C37.0592 22.0871 36.9687 21.8685 36.9687 21.6406V16.4844C36.9687 16.3429 36.9338 16.2036 36.867 16.0789C36.8003 15.9542 36.7038 15.8479 36.5861 15.7694L34.7733 14.5609C34.6555 14.4825 34.5589 14.3762 34.4921 14.2515C34.4253 14.1267 34.3904 13.9874 34.3906 13.8459V12.5806C34.9075 12.1724 36.1743 11.3281 37.8281 11.3281C39.4818 11.3281 40.7487 12.1718 41.2656 12.5806V13.8459C41.2657 13.9874 41.2308 14.1267 41.1641 14.2514C41.0973 14.3762 41.0007 14.4825 40.8829 14.5609V14.5609Z" fill="#0E59F2"/>
</g>
</svg>
